<svg width="12" height="12" viewBox="0 0 12 12" fill="none" stroke="" stroke-width="1.5" stroke-linecap="round" xmlns="http://www.w3.org/2000/svg">
<path d="M6.00001 7.0299L1.40434 11.6369C1.25228 11.788 1.08323 11.8588 0.897172 11.8494C0.711116 11.84 0.542061 11.7597 0.390005 11.6086C0.23795 11.4575 0.162394 11.286 0.163339 11.0943C0.164283 10.9026 0.239839 10.7312 0.390005 10.5801L4.97151 5.99998L0.390005 1.44115C0.238894 1.28909 0.163339 1.11579 0.163339 0.92123C0.163339 0.726675 0.238894 0.552897 0.390005 0.399897C0.541116 0.246897 0.713006 0.171342 0.905672 0.173231C1.09834 0.173231 1.26976 0.248786 1.41992 0.399897L6.00001 5.00548L10.5603 0.39848C10.7123 0.247369 10.8814 0.171814 11.0674 0.171814C11.2535 0.171814 11.4225 0.247369 11.5746 0.39848C11.7304 0.555257 11.8083 0.728564 11.8083 0.918397C11.8083 1.10823 11.7304 1.27823 11.5746 1.4284L6.9945 5.99998L11.6015 10.5956C11.7526 10.7477 11.8282 10.9168 11.8282 11.1028C11.8282 11.2889 11.7526 11.4579 11.6015 11.61C11.4447 11.7658 11.2714 11.8437 11.0816 11.8437C10.8918 11.8437 10.7218 11.7658 10.5716 11.61L6.00001 7.0299Z" stroke="" stroke-width="1.5" stroke-linecap="round"/>
</svg>
