<svg width="22" height="22" viewBox="0 0 22 22" fill="none" stroke="" stroke-width="1.5" stroke-linecap="round" xmlns="http://www.w3.org/2000/svg">
<path d="M0.75 0.625001C0.75 0.279823 1.02982 0 1.375 0V0C1.72018 0 2 0.279822 2 0.625V17.5L8.47508 6.27885C8.75116 5.80041 9.36286 5.63644 9.84123 5.91264L15.6221 9.25033C16.1001 9.52634 16.7114 9.36278 16.9878 8.88491L20.7003 2.46486C20.8726 2.16691 21.2541 2.06545 21.5516 2.23844V2.23844C21.8479 2.4107 21.9491 2.79011 21.7779 3.08703L17.4498 10.5955C17.1738 11.0742 16.5619 11.2384 16.0834 10.9621L10.3033 7.6249C9.82511 7.34879 9.21362 7.51256 8.9374 7.99071L2 20H21.375C21.7202 20 22 20.2798 22 20.625V20.625C22 20.9702 21.7202 21.25 21.375 21.25H1.75C1.19772 21.25 0.75 20.8023 0.75 20.25V0.625001Z" stroke="" stroke-width="1.5" stroke-linecap="round"/>
</svg>
