<svg width="20" height="6" viewBox="0 0 20 6" fill="none" stroke="" stroke-width="1.5" stroke-linecap="round" xmlns="http://www.w3.org/2000/svg">
<path d="M15 3C15 2.33696 15.2634 1.70107 15.7322 1.23223C16.2011 0.763393 16.837 0.5 17.5 0.5C18.163 0.5 18.7989 0.763393 19.2678 1.23223C19.7366 1.70107 20 2.33696 20 3C20 3.66304 19.7366 4.29893 19.2678 4.76777C18.7989 5.23661 18.163 5.5 17.5 5.5C16.837 5.5 16.2011 5.23661 15.7322 4.76777C15.2634 4.29893 15 3.66304 15 3ZM7.5 3C7.5 2.33696 7.76339 1.70107 8.23223 1.23223C8.70107 0.763393 9.33696 0.5 10 0.5C10.663 0.5 11.2989 0.763393 11.7678 1.23223C12.2366 1.70107 12.5 2.33696 12.5 3C12.5 3.66304 12.2366 4.29893 11.7678 4.76777C11.2989 5.23661 10.663 5.5 10 5.5C9.33696 5.5 8.70107 5.23661 8.23223 4.76777C7.76339 4.29893 7.5 3.66304 7.5 3ZM0 3C0 2.33696 0.263392 1.70107 0.732233 1.23223C1.20107 0.763393 1.83696 0.5 2.5 0.5C3.16304 0.5 3.79893 0.763393 4.26777 1.23223C4.73661 1.70107 5 2.33696 5 3C5 3.66304 4.73661 4.29893 4.26777 4.76777C3.79893 5.23661 3.16304 5.5 2.5 5.5C1.83696 5.5 1.20107 5.23661 0.732233 4.76777C0.263392 4.29893 0 3.66304 0 3ZM2.5 1.75C2.16848 1.75 1.85054 1.8817 1.61612 2.11612C1.3817 2.35054 1.25 2.66848 1.25 3C1.25 3.33152 1.3817 3.64946 1.61612 3.88388C1.85054 4.1183 2.16848 4.25 2.5 4.25C2.83152 4.25 3.14946 4.1183 3.38388 3.88388C3.6183 3.64946 3.75 3.33152 3.75 3C3.75 2.66848 3.6183 2.35054 3.38388 2.11612C3.14946 1.8817 2.83152 1.75 2.5 1.75ZM10 1.75C9.66848 1.75 9.35054 1.8817 9.11612 2.11612C8.8817 2.35054 8.75 2.66848 8.75 3C8.75 3.33152 8.8817 3.64946 9.11612 3.88388C9.35054 4.1183 9.66848 4.25 10 4.25C10.3315 4.25 10.6495 4.1183 10.8839 3.88388C11.1183 3.64946 11.25 3.33152 11.25 3C11.25 2.66848 11.1183 2.35054 10.8839 2.11612C10.6495 1.8817 10.3315 1.75 10 1.75ZM17.5 1.75C17.1685 1.75 16.8505 1.8817 16.6161 2.11612C16.3817 2.35054 16.25 2.66848 16.25 3C16.25 3.33152 16.3817 3.64946 16.6161 3.88388C16.8505 4.1183 17.1685 4.25 17.5 4.25C17.8315 4.25 18.1495 4.1183 18.3839 3.88388C18.6183 3.64946 18.75 3.33152 18.75 3C18.75 2.66848 18.6183 2.35054 18.3839 2.11612C18.1495 1.8817 17.8315 1.75 17.5 1.75Z" stroke="" stroke-width="1.5" stroke-linecap="round"/>
</svg>
