<svg width="23" height="29" viewBox="0 0 23 29" fill="none" stroke="" stroke-width="1.5" stroke-linecap="round" xmlns="http://www.w3.org/2000/svg">
<path d="M11.056 17.5833L1.89081 16.5165C1.34711 16.4589 0.998697 16.1712 0.845558 15.6532C0.692419 15.1352 0.817808 14.6973 1.22172 14.3397L16.3023 0.803828C16.3722 0.733939 16.4524 0.681523 16.5428 0.646578C16.6343 0.612661 16.7648 0.595703 16.9344 0.595703C17.2119 0.595703 17.4308 0.714926 17.5911 0.95337C17.7525 1.19284 17.754 1.44465 17.5958 1.70879L11.8546 11.4475L21.0768 12.5159C21.6216 12.5724 21.9751 12.855 22.1375 13.3638C22.3009 13.8715 22.1807 14.3042 21.7768 14.6619L6.69618 28.2285C6.62629 28.2974 6.54613 28.3442 6.45568 28.3688C6.36421 28.3935 6.23368 28.4058 6.0641 28.4058C5.7866 28.4058 5.57745 28.2866 5.43664 28.0482C5.29584 27.8087 5.29429 27.5661 5.43202 27.3205L11.056 17.5833ZM9.20602 23.7762L20.2721 13.9573L9.37252 12.7363L13.8433 5.17291L2.72793 15.0211L13.5905 16.3238L9.20602 23.7762Z" stroke="" stroke-width="1.5" stroke-linecap="round"/>
</svg>
