<svg width="23" height="28" viewBox="0 0 23 28" fill="none" stroke="" stroke-width="1.5" stroke-linecap="round" xmlns="http://www.w3.org/2000/svg">
<path d="M5.33331 27.5C4.06195 27.5 2.97302 27.0595 2.06652 26.1785C1.16002 25.2975 0.707287 24.238 0.708315 23L0.708315 8C0.708315 6.763 1.16105 5.7035 2.06652 4.8215C2.972 3.9395 4.06093 3.499 5.33331 3.5L7.64581 3.5L7.64581 1.25C7.64581 1.037 7.71981 0.859 7.86781 0.716C8.01581 0.572 8.19876 0.5 8.41665 0.5C8.63454 0.5 8.81748 0.572 8.96548 0.716C9.11245 0.859 9.18594 1.037 9.18594 1.25V3.5L13.8109 3.5V1.25C13.8109 1.037 13.8849 0.859 14.0329 0.716C14.182 0.572 14.3654 0.5 14.5833 0.5C14.8012 0.5 14.9841 0.572 15.1321 0.716C15.2791 0.859 15.3526 1.037 15.3526 1.25V3.5L17.6666 3.5C18.939 3.5 20.028 3.9405 20.9334 4.8215C21.8389 5.7025 22.2916 6.762 22.2916 8L22.2916 23C22.2916 24.238 21.8389 25.2975 20.9334 26.1785C20.028 27.0595 18.939 27.5 17.6666 27.5L5.33331 27.5ZM5.33331 26L17.6666 26C18.5146 26 19.2407 25.7065 19.845 25.1195C20.4494 24.5325 20.751 23.826 20.75 23L20.75 8C20.75 7.175 20.4483 6.469 19.845 5.882C19.2417 5.295 18.5156 5.001 17.6666 5L5.33331 5C4.4854 5 3.75979 5.294 3.15648 5.882C2.55318 6.47 2.25101 7.176 2.24998 8L2.24998 23C2.24998 23.825 2.55215 24.5315 3.15648 25.1195C3.76081 25.7075 4.48643 26.001 5.33331 26ZM6.87498 10.25H16.125C16.3439 10.25 16.5268 10.178 16.6738 10.034C16.8218 9.89 16.8958 9.7115 16.8958 9.4985C16.8958 9.2855 16.8218 9.1075 16.6738 8.9645C16.5268 8.8215 16.3439 8.75 16.125 8.75H6.87498C6.65606 8.75 6.47312 8.822 6.32615 8.966C6.17815 9.11 6.10415 9.288 6.10415 9.5C6.10415 9.712 6.17815 9.89 6.32615 10.034C6.47312 10.178 6.65606 10.25 6.87498 10.25ZM11.4954 21.9905C12.3402 21.9905 13.056 21.7065 13.6429 21.1385C14.2308 20.5695 14.5247 19.8895 14.5247 19.0985C14.5247 18.7695 14.4836 18.4895 14.4014 18.2585C14.3192 18.0265 14.165 17.7565 13.9389 17.4485L12.2091 15.4445C12.017 15.2275 11.78 15.119 11.4984 15.119C11.2168 15.119 10.9851 15.226 10.8031 15.44L9.05027 17.4545C8.82827 17.7655 8.67719 18.033 8.59702 18.257C8.51583 18.481 8.47523 18.7585 8.47523 19.0895C8.47523 19.8865 8.76712 20.5695 9.3509 21.1385C9.93468 21.7065 10.6505 21.9905 11.4954 21.9905Z" stroke="" stroke-width="1.5" stroke-linecap="round"/>
</svg>
