<svg width="36" height="38" viewBox="0 0 36 38" fill="none" stroke="" stroke-width="1.5" stroke-linecap="round" xmlns="http://www.w3.org/2000/svg">
<path d="M15.1918 17.5793C15.97 9.63169 15.489 7.62191 17.6888 7.37005C19.8887 7.1182 20.0998 5.82028 20.5937 12.9296C21.0876 20.0388 21.3849 26.9274 21.7846 31.5284C22.1842 36.1293 20.9512 36.0351 17.6888 36.6833C14.4265 37.3316 13.6159 37.663 13.8888 33.2505C14.1617 28.838 14.4136 25.5268 15.1918 17.5793ZM15.4903 17.9454C14.7995 25.5099 14.4405 29.0507 14.1983 33.2505C13.956 37.4503 14.976 36.9077 17.7068 36.4007C20.4375 35.8937 21.8481 36.056 21.4439 31.5284C21.0397 27.0008 20.7236 19.6962 20.2852 12.9296C19.8468 6.16294 19.6594 7.4939 17.7068 7.73361C15.7541 7.97333 16.181 10.3808 15.4903 17.9454Z
M26.1139 15.2783C28.7582 10.3424 32.5557 7.56128 33.771 8.04137C34.9862 8.52146 36.0739 13.2708 33.0771 19C30.0803 24.7292 25.9302 25.8384 24.8706 25.4933C23.811 25.1482 23.4697 20.2142 26.1139 15.2783ZM26.5576 15.3553C24.2553 19.5812 24.2643 24.7601 25.0675 25.0555C25.8707 25.351 30.011 23.9051 32.6203 19C35.2296 14.0949 34.643 8.86327 33.5849 8.45224C32.5268 8.04121 28.8599 11.1293 26.5576 15.3553Z
M3.67026 11.1657C1.11042 7.50877 0.525316 2.6085 1.54925 1.36515C2.57319 0.121798 5.645 1.51143 8.71681 5.46089C11.7886 9.41036 12.2274 14.3838 11.4229 15.9928C10.6184 17.6019 6.2301 14.8226 3.67026 11.1657ZM11.1345 15.679C11.8375 14.1332 11.3321 9.6215 8.48023 5.90711C5.62835 2.19271 2.73368 0.587317 1.82563 1.78819C0.917579 2.98905 1.74978 7.64873 4.13243 11.0925C5.49914 13.0679 7.00015 14.4098 8.48023 15.2315C9.58043 15.8424 10.8348 16.3381 11.1345 15.679Z
M9.36923 20.1934C11.4685 21.9253 11.416 23.2373 11.2585 23.4472C11.1011 23.6572 9.26427 23.7096 7.63736 22.5026C6.01045 21.2955 5.43316 19.2099 5.69557 19C5.95797 18.7901 7.27 18.4615 9.36923 20.1934ZM9.21915 20.5099C7.44484 19.0461 6.21835 19.0488 5.99656 19.2262C5.77477 19.4036 6.40521 21.2481 7.78031 22.2683C9.1554 23.2886 10.793 23.3413 10.926 23.1639C11.0591 22.9864 10.9935 21.9737 9.21915 20.5099Z" stroke="" stroke-width="1.5" stroke-linecap="round"/>
</svg>
