<svg width="38" height="38" viewBox="0 0 38 38" fill="none" stroke="" stroke-width="1.5" stroke-linecap="round" xmlns="http://www.w3.org/2000/svg">
<path d="M19 22.625C29.005 22.625 37.125 26.4192 37.125 31.0833C37.125 34.4201 34.4201 37.125 31.0833 37.125H6.91667C3.57995 37.125 0.875 34.4201 0.875 31.0833C0.875 26.4192 8.995 22.625 19 22.625ZM34.7083 31.0833C34.7083 27.7483 27.6758 25.0417 19 25.0417C10.3242 25.0417 3.29167 27.7483 3.29167 31.0833C3.29167 33.0854 4.91463 34.7083 6.91667 34.7083H31.0833C33.0854 34.7083 34.7083 33.0854 34.7083 31.0833ZM19 0.875C21.2433 0.875 23.3947 1.76614 24.9809 3.35239C26.5672 4.93863 27.4583 7.09004 27.4583 9.33333C27.4583 11.5766 26.5672 13.728 24.9809 15.3143C23.3947 16.9005 21.2433 17.7917 19 17.7917C16.7567 17.7917 14.6053 16.9005 13.0191 15.3143C11.4328 13.728 10.5417 11.5766 10.5417 9.33333C10.5417 7.09004 11.4328 4.93863 13.0191 3.35239C14.6053 1.76614 16.7567 0.875 19 0.875ZM19 3.29167C17.3977 3.29167 15.8609 3.9282 14.7279 5.06123C13.5949 6.19426 12.9583 7.73098 12.9583 9.33333C12.9583 10.9357 13.5949 12.4724 14.7279 13.6054C15.8609 14.7385 17.3977 15.375 19 15.375C20.6024 15.375 22.1391 14.7385 23.2721 13.6054C24.4051 12.4724 25.0417 10.9357 25.0417 9.33333C25.0417 7.73098 24.4051 6.19426 23.2721 5.06123C22.1391 3.9282 20.6024 3.29167 19 3.29167Z" stroke="" stroke-width="1.5" stroke-linecap="round"/>
</svg>
