<svg width="22" height="22" viewBox="0 0 22 22" fill="none" stroke="" stroke-width="1.5" stroke-linecap="round" xmlns="http://www.w3.org/2000/svg">
<path d="M12 1C12 0.447715 12.4477 0 13 0H21C21.5523 0 22 0.447715 22 1V6.5C22 7.05228 21.5523 7.5 21 7.5H13C12.4477 7.5 12 7.05228 12 6.5V1ZM13 21.25C12.4477 21.25 12 20.8023 12 20.25V9.75C12 9.19771 12.4477 8.75 13 8.75H21C21.5523 8.75 22 9.19772 22 9.75V20.25C22 20.8023 21.5523 21.25 21 21.25H13ZM1.75 21.25C1.19772 21.25 0.75 20.8023 0.75 20.25V14.75C0.75 14.1977 1.19772 13.75 1.75 13.75H9.75C10.3023 13.75 10.75 14.1977 10.75 14.75V20.25C10.75 20.8023 10.3023 21.25 9.75 21.25H1.75ZM1.75 12.5C1.19772 12.5 0.75 12.0523 0.75 11.5V1C0.75 0.447715 1.19772 0 1.75 0H9.75C10.3023 0 10.75 0.447715 10.75 1V11.5C10.75 12.0523 10.3023 12.5 9.75 12.5H1.75ZM3 1.25C2.44772 1.25 2 1.69772 2 2.25V10.25C2 10.8023 2.44772 11.25 3 11.25H8.5C9.05228 11.25 9.5 10.8023 9.5 10.25V2.25C9.5 1.69772 9.05228 1.25 8.5 1.25H3ZM14.25 1.25C13.6977 1.25 13.25 1.69772 13.25 2.25V5.25C13.25 5.80228 13.6977 6.25 14.25 6.25H19.75C20.3023 6.25 20.75 5.80228 20.75 5.25V2.25C20.75 1.69772 20.3023 1.25 19.75 1.25H14.25ZM14.25 10C13.6977 10 13.25 10.4477 13.25 11V19C13.25 19.5523 13.6977 20 14.25 20H19.75C20.3023 20 20.75 19.5523 20.75 19V11C20.75 10.4477 20.3023 10 19.75 10H14.25ZM3 15C2.44772 15 2 15.4477 2 16V19C2 19.5523 2.44772 20 3 20H8.5C9.05228 20 9.5 19.5523 9.5 19V16C9.5 15.4477 9.05228 15 8.5 15H3Z" stroke="" stroke-width="1.5" stroke-linecap="round"/>
</svg>
