<svg width="31" height="32" viewBox="0 0 31 32" fill="none" stroke="" stroke-width="1.5" stroke-linecap="round" xmlns="http://www.w3.org/2000/svg">
<path d="M13.4835 15.25L17.5165 15.25L17.5165 4.28801C17.5165 3.74801 17.3192 3.28601 16.9245 2.90201C16.5298 2.51901 16.055 2.32751 15.5 2.32751C14.945 2.32751 14.4702 2.51901 14.0755 2.90201C13.6808 3.28601 13.4835 3.74801 13.4835 4.28801L13.4835 15.25ZM4.53104 20.6725L26.469 20.6725V17.6725C26.469 17.4035 26.3801 17.1825 26.2022 17.0095C26.0244 16.8365 25.7973 16.75 25.5208 16.75L5.47917 16.75C5.20167 16.75 4.97453 16.8365 4.79775 17.0095C4.62097 17.1825 4.53207 17.4035 4.53104 17.6725L4.53104 20.6725ZM3.30233 29.6725H7.31683V25.9225C7.31683 25.7105 7.39083 25.5325 7.53883 25.3885C7.68683 25.2445 7.87029 25.1725 8.08921 25.1725C8.30812 25.1725 8.49107 25.2445 8.63804 25.3885C8.78501 25.5325 8.8585 25.7105 8.8585 25.9225L8.8585 29.6725L14.7292 29.6725L14.7292 25.9225C14.7292 25.7105 14.8032 25.5325 14.9512 25.3885C15.0992 25.2445 15.2826 25.1725 15.5015 25.1725C15.7205 25.1725 15.9034 25.2445 16.0504 25.3885C16.1973 25.5325 16.2708 25.7105 16.2708 25.9225L16.2708 29.6725H22.1415V25.9225C22.1415 25.7105 22.2155 25.5325 22.3635 25.3885C22.5115 25.2445 22.6944 25.1725 22.9123 25.1725C23.1312 25.1725 23.3142 25.2445 23.4612 25.3885C23.6092 25.5325 23.6832 25.7105 23.6832 25.9225V29.6725H27.6977C28.0132 29.6725 28.2701 29.5525 28.4685 29.3125C28.6658 29.0725 28.7152 28.808 28.6165 28.519L26.7187 22.174L4.28129 22.174L2.38504 28.519C2.28535 28.808 2.33417 29.0725 2.5315 29.3125C2.72986 29.5525 2.9868 29.6725 3.30233 29.6725ZM27.9335 31.1725L3.06646 31.1725C2.32132 31.1725 1.70979 30.8815 1.23187 30.2995C0.752929 29.7165 0.621888 29.0655 0.838749 28.3465L2.98937 21.163L2.98937 17.5C2.98937 16.867 3.21189 16.334 3.65692 15.901C4.10297 15.467 4.65129 15.25 5.30187 15.25L11.9418 15.25L11.9418 4.28801C11.9418 3.32701 12.2877 2.51001 12.9794 1.83701C13.6711 1.16401 14.5113 0.827515 15.5 0.827515C16.4887 0.827515 17.3289 1.16401 18.0206 1.83701C18.7123 2.51001 19.0582 3.32701 19.0582 4.28801L19.0582 15.25H25.6981C26.3487 15.25 26.897 15.467 27.3431 15.901C27.7881 16.334 28.0106 16.867 28.0106 17.5V21.163L30.1612 28.4035C30.3956 29.1035 30.2722 29.74 29.7912 30.313C29.3102 30.886 28.691 31.1725 27.9335 31.1725Z"  stroke="" stroke-width="1.5" stroke-linecap="round"/>
</svg>
