<svg width="23" height="28" viewBox="0 0 23 28" fill="none" stroke="" stroke-width="1.5" stroke-linecap="round" xmlns="http://www.w3.org/2000/svg">
<path d="M11.4938 27.375C8.41254 27.375 5.84515 26.3148 3.79165 24.1945C1.73609 22.0753 0.708313 19.437 0.708313 16.2796C0.708313 14.8818 1.02692 13.4738 1.66415 12.0555C2.29931 10.6371 3.0943 9.27634 4.0491 7.97312C5.00494 6.66887 6.0358 5.43913 7.14169 4.28391C8.24861 3.12972 9.27638 2.12506 10.225 1.26995C10.41 1.10448 10.612 0.976523 10.8309 0.886078C11.0488 0.796662 11.2718 0.751953 11.5 0.751953C11.7281 0.751953 11.9512 0.796662 12.1691 0.886078C12.387 0.976523 12.5889 1.10499 12.7749 1.27149C13.7236 2.12455 14.7514 3.12869 15.8583 4.28391C16.9652 5.43913 17.996 6.66887 18.9509 7.97312C19.9057 9.27634 20.7012 10.6371 21.3374 12.0555C21.9736 13.4738 22.2916 14.8818 22.2916 16.2796C22.2916 19.437 21.2623 22.0753 19.2037 24.1945C17.1451 26.3138 14.5741 27.374 11.4938 27.375ZM11.5 25.8333C14.1722 25.8333 16.3819 24.9273 18.1291 23.1154C19.8764 21.3034 20.75 19.0233 20.75 16.275C20.75 14.3993 19.9725 12.2795 18.4174 9.91562C16.8624 7.55173 14.5566 4.96944 11.5 2.16875C8.44234 4.96944 6.13652 7.55173 4.58252 9.91562C3.02852 12.2795 2.25101 14.3993 2.24998 16.275C2.24998 19.0243 3.12359 21.3049 4.87081 23.1169C6.61804 24.9289 8.82776 25.8344 11.5 25.8333ZM11.8345 23.8168C12.0637 23.7911 12.2436 23.712 12.3741 23.5794C12.5026 23.4479 12.5668 23.2886 12.5668 23.1015C12.5668 22.8826 12.4928 22.7135 12.3448 22.5943C12.1978 22.4751 12.0092 22.4283 11.779 22.454C10.7255 22.5311 9.54874 22.2022 8.2486 21.4673C6.94744 20.7335 6.14269 19.5053 5.83435 17.7827C5.78297 17.5402 5.69766 17.3588 5.57844 17.2385C5.45922 17.1183 5.3071 17.0582 5.1221 17.0582C4.92066 17.0582 4.74902 17.1337 4.60719 17.2848C4.46433 17.4359 4.42167 17.662 4.47923 17.9631C4.87698 20.103 5.86519 21.6343 7.44386 22.5573C9.02355 23.4802 10.4871 23.9001 11.8345 23.8168Z" stroke="" stroke-width="1.5" stroke-linecap="round"/>
</svg>
